<svg xmlns="http://www.w3.org/2000/svg" viewBox="104 95 1833 1834" role="img" aria-label="Kashtan logo white transparent">
  <path d="M 996 95 L 995 96 L 973 96 L 972 97 L 961 97 L 960 98 L 949 98 L 948 99 L 936 99 L 935 100 L 926 100 L 925 101 L 909 102 L 908 103 L 894 104 L 893 105 L 887 105 L 886 106 L 879 106 L 878 107 L 873 107 L 872 108 L 867 108 L 866 109 L 861 109 L 860 110 L 841 113 L 840 114 L 832 115 L 827 117 L 823 117 L 818 119 L 814 119 L 809 121 L 805 121 L 804 122 L 785 126 L 781 128 L 778 128 L 774 130 L 771 130 L 767 132 L 764 132 L 757 135 L 754 135 L 747 138 L 744 138 L 726 144 L 723 146 L 693 156 L 690 158 L 688 158 L 685 160 L 673 164 L 668 167 L 666 167 L 661 170 L 654 172 L 647 176 L 645 176 L 590 203 L 588 205 L 574 212 L 567 217 L 560 220 L 545 230 L 532 237 L 521 245 L 518 246 L 476 275 L 430 311 L 399 339 L 398 339 L 380 357 L 379 357 L 347 390 L 347 391 L 335 403 L 304 440 L 265 493 L 262 499 L 241 530 L 229 552 L 227 554 L 225 559 L 223 561 L 221 566 L 219 568 L 209 588 L 207 590 L 204 596 L 204 598 L 202 600 L 202 602 L 186 633 L 186 635 L 176 655 L 176 657 L 169 672 L 167 680 L 163 688 L 162 693 L 158 701 L 149 730 L 147 733 L 143 745 L 143 748 L 137 766 L 135 777 L 133 781 L 133 784 L 132 785 L 132 788 L 131 789 L 131 792 L 130 793 L 130 796 L 129 797 L 129 800 L 128 801 L 128 804 L 127 805 L 127 808 L 124 817 L 124 821 L 123 822 L 123 826 L 121 832 L 121 837 L 119 843 L 119 849 L 118 850 L 118 855 L 117 856 L 117 861 L 116 862 L 115 874 L 113 880 L 113 886 L 112 887 L 112 893 L 111 894 L 111 900 L 110 901 L 110 908 L 109 909 L 108 929 L 107 930 L 107 942 L 106 943 L 106 956 L 105 957 L 105 979 L 104 980 L 104 1052 L 105 1053 L 106 1085 L 107 1086 L 107 1096 L 108 1097 L 108 1106 L 109 1107 L 109 1115 L 110 1116 L 110 1122 L 111 1123 L 111 1130 L 112 1131 L 112 1137 L 113 1138 L 113 1144 L 114 1145 L 114 1151 L 115 1152 L 115 1158 L 116 1159 L 118 1176 L 120 1182 L 120 1187 L 121 1188 L 123 1202 L 126 1211 L 126 1215 L 127 1216 L 127 1219 L 128 1220 L 128 1223 L 129 1224 L 129 1227 L 130 1228 L 130 1231 L 131 1232 L 136 1255 L 141 1270 L 141 1273 L 147 1289 L 147 1292 L 151 1301 L 151 1304 L 155 1316 L 162 1332 L 163 1337 L 165 1340 L 167 1348 L 169 1351 L 174 1366 L 185 1389 L 185 1391 L 190 1400 L 190 1402 L 212 1446 L 214 1448 L 227 1473 L 229 1475 L 239 1493 L 245 1501 L 246 1504 L 280 1554 L 297 1575 L 300 1580 L 330 1616 L 351 1638 L 351 1639 L 393 1681 L 394 1681 L 427 1711 L 457 1735 L 487 1757 L 491 1759 L 494 1762 L 535 1789 L 538 1790 L 555 1801 L 578 1813 L 580 1815 L 631 1841 L 633 1841 L 642 1846 L 644 1846 L 669 1858 L 671 1858 L 684 1864 L 689 1865 L 697 1869 L 702 1870 L 705 1872 L 710 1873 L 713 1875 L 743 1885 L 746 1885 L 749 1887 L 752 1887 L 759 1890 L 762 1890 L 773 1894 L 780 1895 L 784 1897 L 787 1897 L 788 1898 L 791 1898 L 792 1899 L 795 1899 L 796 1900 L 799 1900 L 800 1901 L 803 1901 L 812 1904 L 816 1904 L 821 1906 L 830 1907 L 835 1909 L 839 1909 L 840 1910 L 844 1910 L 845 1911 L 849 1911 L 855 1913 L 860 1913 L 861 1914 L 866 1914 L 867 1915 L 872 1915 L 873 1916 L 878 1916 L 879 1917 L 884 1917 L 885 1918 L 890 1918 L 891 1919 L 905 1920 L 906 1921 L 920 1922 L 921 1923 L 929 1923 L 930 1924 L 953 1925 L 954 1926 L 969 1926 L 970 1927 L 992 1927 L 993 1928 L 1053 1928 L 1054 1927 L 1075 1927 L 1076 1926 L 1090 1926 L 1091 1925 L 1102 1925 L 1103 1924 L 1113 1924 L 1114 1923 L 1131 1922 L 1132 1921 L 1145 1920 L 1146 1919 L 1151 1919 L 1152 1918 L 1157 1918 L 1158 1917 L 1163 1917 L 1164 1916 L 1170 1916 L 1171 1915 L 1181 1914 L 1187 1912 L 1192 1912 L 1193 1911 L 1207 1909 L 1212 1907 L 1216 1907 L 1221 1905 L 1225 1905 L 1226 1904 L 1229 1904 L 1230 1903 L 1233 1903 L 1234 1902 L 1237 1902 L 1238 1901 L 1261 1896 L 1279 1890 L 1282 1890 L 1292 1886 L 1295 1886 L 1322 1877 L 1325 1875 L 1333 1873 L 1336 1871 L 1341 1870 L 1344 1868 L 1349 1867 L 1352 1865 L 1354 1865 L 1357 1863 L 1369 1859 L 1390 1849 L 1392 1849 L 1401 1844 L 1403 1844 L 1453 1819 L 1455 1817 L 1480 1804 L 1482 1802 L 1505 1789 L 1513 1783 L 1516 1782 L 1519 1779 L 1522 1778 L 1553 1757 L 1564 1748 L 1568 1746 L 1584 1734 L 1624 1701 L 1647 1679 L 1648 1679 L 1691 1636 L 1691 1635 L 1719 1605 L 1745 1573 L 1773 1535 L 1795 1502 L 1805 1484 L 1809 1479 L 1819 1460 L 1821 1458 L 1834 1432 L 1836 1430 L 1846 1410 L 1846 1408 L 1856 1389 L 1856 1387 L 1862 1375 L 1862 1373 L 1867 1363 L 1871 1351 L 1874 1346 L 1875 1341 L 1877 1338 L 1880 1327 L 1882 1324 L 1885 1313 L 1887 1310 L 1892 1295 L 1892 1292 L 1895 1285 L 1895 1282 L 1898 1275 L 1900 1265 L 1905 1251 L 1905 1248 L 1906 1247 L 1906 1244 L 1907 1243 L 1907 1240 L 1908 1239 L 1908 1236 L 1911 1227 L 1911 1223 L 1913 1218 L 1913 1214 L 1915 1209 L 1915 1205 L 1916 1204 L 1916 1200 L 1917 1199 L 1917 1195 L 1919 1190 L 1920 1180 L 1922 1174 L 1922 1169 L 1924 1163 L 1926 1141 L 1927 1140 L 1927 1133 L 1928 1132 L 1928 1125 L 1929 1124 L 1929 1117 L 1930 1116 L 1930 1108 L 1931 1107 L 1931 1099 L 1932 1098 L 1933 1076 L 1934 1075 L 1935 1039 L 1936 1038 L 1936 994 L 1935 993 L 1934 957 L 1933 956 L 1933 943 L 1932 942 L 1932 931 L 1931 930 L 1931 921 L 1930 920 L 1929 903 L 1928 902 L 1928 895 L 1927 894 L 1927 888 L 1926 887 L 1926 879 L 1925 878 L 1924 865 L 1923 864 L 1922 853 L 1921 852 L 1920 842 L 1918 837 L 1916 823 L 1915 822 L 1915 819 L 1912 810 L 1912 806 L 1910 801 L 1910 797 L 1909 796 L 1906 781 L 1901 767 L 1901 764 L 1896 749 L 1896 746 L 1894 742 L 1894 739 L 1886 715 L 1884 712 L 1881 701 L 1879 698 L 1878 693 L 1873 682 L 1872 677 L 1866 665 L 1866 663 L 1864 660 L 1860 648 L 1856 641 L 1856 639 L 1852 632 L 1852 630 L 1840 605 L 1838 603 L 1825 576 L 1823 574 L 1815 558 L 1810 551 L 1808 546 L 1806 544 L 1796 526 L 1790 518 L 1789 515 L 1761 474 L 1728 431 L 1714 416 L 1702 401 L 1675 373 L 1675 372 L 1639 337 L 1631 331 L 1601 304 L 1581 289 L 1577 285 L 1515 241 L 1502 234 L 1481 220 L 1454 206 L 1452 204 L 1433 195 L 1431 193 L 1415 185 L 1413 185 L 1398 177 L 1396 177 L 1389 173 L 1387 173 L 1382 170 L 1380 170 L 1375 167 L 1368 165 L 1351 157 L 1346 156 L 1343 154 L 1335 152 L 1332 150 L 1324 148 L 1321 146 L 1294 137 L 1284 135 L 1260 127 L 1257 127 L 1256 126 L 1253 126 L 1252 125 L 1249 125 L 1248 124 L 1245 124 L 1244 123 L 1241 123 L 1232 120 L 1228 120 L 1223 118 L 1219 118 L 1214 116 L 1210 116 L 1205 114 L 1201 114 L 1196 112 L 1176 109 L 1175 108 L 1170 108 L 1169 107 L 1164 107 L 1163 106 L 1157 106 L 1156 105 L 1150 105 L 1149 104 L 1135 103 L 1134 102 L 1127 102 L 1126 101 L 1108 100 L 1107 99 L 1095 99 L 1094 98 L 1082 98 L 1081 97 L 1069 97 L 1068 96 L 1048 96 L 1047 95 Z
    M 1004 135 L 1041 135 L 1042 136 L 1066 136 L 1067 137 L 1080 137 L 1081 138 L 1106 139 L 1107 140 L 1116 140 L 1117 141 L 1132 142 L 1133 143 L 1139 143 L 1140 144 L 1145 144 L 1146 145 L 1152 145 L 1153 146 L 1158 146 L 1159 147 L 1182 150 L 1183 151 L 1202 154 L 1207 156 L 1211 156 L 1212 157 L 1215 157 L 1216 158 L 1219 158 L 1224 160 L 1228 160 L 1236 163 L 1247 165 L 1251 167 L 1254 167 L 1258 169 L 1261 169 L 1265 171 L 1268 171 L 1272 173 L 1282 175 L 1285 177 L 1288 177 L 1291 179 L 1294 179 L 1306 183 L 1309 185 L 1320 188 L 1323 190 L 1328 191 L 1331 193 L 1333 193 L 1336 195 L 1338 195 L 1341 197 L 1353 201 L 1358 204 L 1360 204 L 1365 207 L 1372 209 L 1379 213 L 1381 213 L 1437 241 L 1439 243 L 1453 250 L 1473 263 L 1486 270 L 1532 301 L 1557 320 L 1592 349 L 1626 381 L 1627 381 L 1650 404 L 1650 405 L 1651 405 L 1652 407 L 1658 412 L 1658 413 L 1685 442 L 1707 469 L 1732 502 L 1742 518 L 1745 521 L 1757 539 L 1758 542 L 1762 547 L 1763 550 L 1783 582 L 1790 596 L 1792 598 L 1818 651 L 1818 653 L 1830 679 L 1830 681 L 1838 699 L 1839 704 L 1843 712 L 1845 720 L 1847 723 L 1849 729 L 1849 732 L 1859 759 L 1859 762 L 1865 780 L 1865 783 L 1866 784 L 1866 787 L 1867 788 L 1867 791 L 1868 792 L 1868 795 L 1869 796 L 1869 799 L 1872 807 L 1873 815 L 1876 824 L 1876 828 L 1877 829 L 1877 833 L 1879 838 L 1879 842 L 1881 848 L 1881 853 L 1883 859 L 1883 865 L 1884 866 L 1884 871 L 1885 872 L 1885 877 L 1886 878 L 1886 884 L 1887 885 L 1887 890 L 1888 891 L 1888 897 L 1889 898 L 1889 903 L 1890 904 L 1890 910 L 1891 911 L 1891 919 L 1892 920 L 1892 928 L 1893 929 L 1893 939 L 1894 940 L 1894 952 L 1895 953 L 1896 995 L 1897 996 L 1897 1038 L 1896 1039 L 1896 1060 L 1895 1061 L 1894 1088 L 1893 1089 L 1893 1098 L 1892 1099 L 1892 1106 L 1891 1107 L 1889 1130 L 1888 1131 L 1888 1136 L 1887 1137 L 1886 1149 L 1885 1150 L 1883 1167 L 1881 1173 L 1880 1184 L 1879 1185 L 1878 1194 L 1876 1199 L 1875 1208 L 1874 1209 L 1874 1212 L 1873 1213 L 1873 1216 L 1872 1217 L 1872 1220 L 1871 1221 L 1866 1244 L 1862 1255 L 1862 1258 L 1848 1299 L 1848 1302 L 1841 1318 L 1833 1342 L 1822 1365 L 1822 1367 L 1818 1374 L 1818 1376 L 1809 1393 L 1809 1395 L 1807 1397 L 1807 1399 L 1796 1421 L 1794 1423 L 1785 1441 L 1783 1443 L 1781 1448 L 1769 1467 L 1767 1472 L 1759 1483 L 1753 1494 L 1715 1547 L 1686 1582 L 1679 1589 L 1673 1597 L 1658 1612 L 1658 1613 L 1625 1646 L 1624 1646 L 1594 1674 L 1564 1699 L 1518 1733 L 1478 1759 L 1475 1760 L 1463 1768 L 1458 1770 L 1456 1772 L 1442 1779 L 1440 1781 L 1397 1803 L 1395 1803 L 1384 1809 L 1382 1809 L 1369 1816 L 1362 1818 L 1357 1821 L 1350 1823 L 1335 1830 L 1296 1843 L 1293 1845 L 1290 1845 L 1287 1847 L 1284 1847 L 1277 1850 L 1274 1850 L 1270 1852 L 1260 1854 L 1253 1857 L 1250 1857 L 1249 1858 L 1246 1858 L 1245 1859 L 1242 1859 L 1241 1860 L 1238 1860 L 1237 1861 L 1234 1861 L 1233 1862 L 1230 1862 L 1221 1865 L 1217 1865 L 1212 1867 L 1198 1869 L 1193 1871 L 1189 1871 L 1188 1872 L 1184 1872 L 1183 1873 L 1179 1873 L 1178 1874 L 1174 1874 L 1168 1876 L 1163 1876 L 1162 1877 L 1157 1877 L 1156 1878 L 1150 1878 L 1149 1879 L 1143 1879 L 1142 1880 L 1136 1880 L 1135 1881 L 1127 1881 L 1126 1882 L 1118 1882 L 1117 1883 L 1108 1883 L 1107 1884 L 1097 1884 L 1096 1885 L 1085 1885 L 1084 1886 L 1069 1886 L 1068 1887 L 1037 1887 L 1036 1888 L 986 1887 L 984 1885 L 983 1878 L 982 1877 L 982 1873 L 981 1872 L 981 1868 L 980 1867 L 980 1863 L 979 1862 L 978 1851 L 977 1850 L 977 1843 L 976 1842 L 976 1826 L 977 1825 L 977 1816 L 978 1815 L 979 1804 L 982 1795 L 982 1791 L 983 1790 L 986 1775 L 992 1757 L 994 1754 L 1000 1734 L 1002 1731 L 1011 1704 L 1011 1701 L 1014 1692 L 1014 1688 L 1016 1682 L 1016 1676 L 1017 1675 L 1017 1670 L 1018 1669 L 1018 1663 L 1019 1662 L 1021 1639 L 1022 1638 L 1024 1619 L 1025 1618 L 1025 1611 L 1026 1610 L 1026 1604 L 1027 1603 L 1027 1596 L 1028 1595 L 1028 1588 L 1029 1587 L 1029 1581 L 1030 1580 L 1030 1574 L 1031 1573 L 1033 1553 L 1034 1552 L 1036 1533 L 1037 1532 L 1037 1527 L 1038 1526 L 1038 1521 L 1039 1520 L 1039 1514 L 1040 1513 L 1042 1485 L 1043 1484 L 1043 1472 L 1044 1471 L 1045 1411 L 1046 1410 L 1046 1389 L 1047 1388 L 1048 1365 L 1049 1364 L 1049 1356 L 1050 1355 L 1050 1346 L 1051 1345 L 1051 1338 L 1052 1337 L 1052 1329 L 1053 1328 L 1053 1322 L 1054 1321 L 1054 1316 L 1055 1315 L 1055 1308 L 1056 1307 L 1058 1285 L 1059 1284 L 1059 1276 L 1060 1275 L 1060 1266 L 1061 1265 L 1063 1231 L 1064 1230 L 1064 1220 L 1065 1219 L 1065 1209 L 1066 1208 L 1066 1197 L 1067 1196 L 1067 1187 L 1068 1186 L 1068 1175 L 1069 1174 L 1069 1165 L 1070 1164 L 1070 1155 L 1071 1154 L 1071 1144 L 1072 1143 L 1072 1133 L 1073 1132 L 1073 1122 L 1074 1121 L 1074 1111 L 1075 1110 L 1075 1098 L 1076 1097 L 1077 1075 L 1078 1074 L 1078 1062 L 1079 1061 L 1079 1050 L 1080 1049 L 1080 1038 L 1081 1037 L 1082 1018 L 1083 1017 L 1083 1009 L 1084 1008 L 1084 999 L 1085 998 L 1085 992 L 1086 991 L 1086 985 L 1087 984 L 1087 977 L 1088 976 L 1088 967 L 1089 966 L 1090 949 L 1091 948 L 1091 941 L 1092 940 L 1092 932 L 1093 931 L 1093 922 L 1094 921 L 1094 912 L 1095 911 L 1095 904 L 1096 903 L 1097 887 L 1098 886 L 1098 880 L 1099 879 L 1099 873 L 1100 872 L 1100 865 L 1101 864 L 1101 858 L 1102 857 L 1102 851 L 1103 850 L 1103 845 L 1104 844 L 1104 839 L 1105 838 L 1105 831 L 1106 830 L 1106 824 L 1107 823 L 1107 817 L 1108 816 L 1108 809 L 1109 808 L 1110 788 L 1111 787 L 1111 778 L 1112 777 L 1112 765 L 1113 764 L 1113 754 L 1114 753 L 1114 738 L 1115 737 L 1115 722 L 1116 721 L 1116 689 L 1115 688 L 1114 657 L 1113 656 L 1113 649 L 1112 648 L 1112 642 L 1111 641 L 1111 634 L 1110 633 L 1109 621 L 1107 616 L 1107 612 L 1106 611 L 1106 607 L 1105 606 L 1102 591 L 1100 587 L 1099 580 L 1090 553 L 1075 522 L 1065 507 L 1064 504 L 1044 475 L 1024 451 L 1006 433 L 966 401 L 957 395 L 938 379 L 934 377 L 930 373 L 903 353 L 897 347 L 882 335 L 869 322 L 869 321 L 857 308 L 844 289 L 829 258 L 829 256 L 827 253 L 827 251 L 825 248 L 822 239 L 821 233 L 819 230 L 817 223 L 813 217 L 808 214 L 803 214 L 799 216 L 796 219 L 791 231 L 791 252 L 792 253 L 792 262 L 793 263 L 793 288 L 792 289 L 792 296 L 791 297 L 791 302 L 790 303 L 789 311 L 782 332 L 777 342 L 777 344 L 769 360 L 767 362 L 760 375 L 738 407 L 718 433 L 690 475 L 680 494 L 678 496 L 665 522 L 665 524 L 653 549 L 648 564 L 646 567 L 646 569 L 638 587 L 637 592 L 635 595 L 633 601 L 633 604 L 631 608 L 630 615 L 629 616 L 628 625 L 627 626 L 627 632 L 626 633 L 626 664 L 627 665 L 628 679 L 629 680 L 632 700 L 633 701 L 633 704 L 634 705 L 639 728 L 642 735 L 642 738 L 647 751 L 647 754 L 655 778 L 657 781 L 658 786 L 663 796 L 665 803 L 677 827 L 680 830 L 680 832 L 686 843 L 702 866 L 711 877 L 713 881 L 734 907 L 740 913 L 743 918 L 761 939 L 765 945 L 770 950 L 779 963 L 803 992 L 819 1014 L 835 1033 L 841 1042 L 874 1082 L 899 1108 L 899 1109 L 927 1137 L 928 1137 L 940 1150 L 941 1150 L 970 1178 L 976 1189 L 976 1196 L 972 1203 L 967 1207 L 958 1210 L 949 1210 L 948 1209 L 944 1209 L 933 1205 L 931 1203 L 926 1201 L 916 1194 L 913 1193 L 891 1178 L 826 1129 L 811 1115 L 810 1115 L 780 1085 L 775 1078 L 756 1057 L 741 1037 L 730 1025 L 703 991 L 665 949 L 665 948 L 654 937 L 646 927 L 631 912 L 631 911 L 615 896 L 615 895 L 614 895 L 594 877 L 566 857 L 544 845 L 542 845 L 527 838 L 518 835 L 515 835 L 511 833 L 500 831 L 499 830 L 489 829 L 488 828 L 481 828 L 480 827 L 463 827 L 462 826 L 461 827 L 444 827 L 443 828 L 431 829 L 430 830 L 419 832 L 415 834 L 412 834 L 397 839 L 394 841 L 389 842 L 384 845 L 382 845 L 354 859 L 352 861 L 345 864 L 343 866 L 336 869 L 325 876 L 290 893 L 283 895 L 279 898 L 276 898 L 273 900 L 264 903 L 251 905 L 250 906 L 245 906 L 244 907 L 237 907 L 236 908 L 208 908 L 207 909 L 198 909 L 190 912 L 188 914 L 187 917 L 192 924 L 199 928 L 206 930 L 216 935 L 228 946 L 233 954 L 241 971 L 243 973 L 253 994 L 255 996 L 262 1010 L 262 1012 L 265 1017 L 268 1027 L 270 1030 L 273 1039 L 273 1042 L 275 1045 L 275 1048 L 276 1049 L 276 1053 L 279 1062 L 279 1066 L 281 1072 L 281 1077 L 283 1083 L 284 1094 L 286 1100 L 286 1106 L 287 1107 L 288 1116 L 290 1121 L 290 1126 L 293 1135 L 293 1139 L 295 1143 L 296 1151 L 298 1155 L 298 1158 L 302 1166 L 302 1168 L 309 1182 L 311 1184 L 317 1195 L 326 1207 L 339 1221 L 360 1238 L 380 1251 L 418 1269 L 420 1269 L 428 1273 L 461 1284 L 464 1284 L 465 1285 L 468 1285 L 469 1286 L 472 1286 L 473 1287 L 476 1287 L 477 1288 L 480 1288 L 489 1291 L 493 1291 L 499 1293 L 504 1293 L 505 1294 L 509 1294 L 510 1295 L 514 1295 L 520 1297 L 525 1297 L 526 1298 L 531 1298 L 532 1299 L 537 1299 L 538 1300 L 544 1300 L 545 1301 L 560 1302 L 561 1303 L 579 1304 L 580 1305 L 590 1305 L 591 1306 L 601 1306 L 602 1307 L 614 1307 L 615 1308 L 652 1309 L 653 1310 L 654 1309 L 656 1310 L 717 1310 L 718 1309 L 741 1309 L 742 1308 L 772 1307 L 773 1306 L 784 1306 L 785 1305 L 795 1305 L 796 1304 L 806 1304 L 807 1303 L 818 1303 L 819 1302 L 830 1302 L 831 1301 L 870 1300 L 871 1301 L 880 1302 L 887 1305 L 893 1312 L 894 1319 L 890 1327 L 880 1336 L 857 1348 L 855 1348 L 835 1358 L 828 1360 L 785 1381 L 756 1399 L 744 1409 L 735 1415 L 723 1425 L 713 1435 L 712 1435 L 682 1465 L 682 1466 L 669 1480 L 658 1496 L 651 1509 L 651 1511 L 648 1516 L 644 1528 L 644 1531 L 640 1543 L 639 1553 L 638 1554 L 638 1562 L 637 1563 L 637 1586 L 638 1587 L 638 1596 L 639 1597 L 639 1604 L 640 1605 L 640 1610 L 641 1611 L 641 1615 L 642 1616 L 642 1620 L 644 1626 L 644 1631 L 645 1632 L 645 1637 L 646 1638 L 646 1643 L 647 1644 L 647 1650 L 648 1651 L 648 1657 L 649 1658 L 649 1683 L 652 1686 L 658 1684 L 661 1681 L 666 1673 L 681 1659 L 691 1654 L 697 1653 L 698 1652 L 702 1652 L 703 1651 L 707 1651 L 708 1650 L 714 1650 L 720 1648 L 743 1645 L 748 1643 L 753 1643 L 754 1642 L 758 1642 L 764 1640 L 770 1640 L 771 1639 L 777 1639 L 778 1638 L 785 1638 L 786 1637 L 795 1636 L 796 1635 L 804 1634 L 808 1632 L 819 1630 L 843 1622 L 846 1620 L 851 1619 L 881 1603 L 896 1592 L 907 1582 L 907 1581 L 919 1568 L 921 1564 L 929 1554 L 936 1541 L 938 1539 L 946 1523 L 948 1521 L 950 1516 L 952 1514 L 955 1507 L 957 1505 L 975 1466 L 981 1458 L 988 1452 L 996 1449 L 1002 1450 L 1008 1455 L 1011 1461 L 1011 1464 L 1013 1469 L 1013 1474 L 1014 1475 L 1014 1480 L 1015 1481 L 1015 1488 L 1016 1489 L 1016 1510 L 1015 1511 L 1015 1518 L 1014 1519 L 1013 1529 L 1012 1530 L 1009 1545 L 1007 1549 L 1007 1553 L 1006 1554 L 1006 1558 L 1005 1559 L 1005 1563 L 1004 1564 L 1004 1568 L 1003 1569 L 1003 1573 L 1001 1579 L 1001 1585 L 1000 1586 L 998 1603 L 997 1604 L 997 1608 L 996 1609 L 996 1613 L 994 1619 L 993 1630 L 991 1635 L 991 1640 L 990 1641 L 990 1646 L 988 1651 L 988 1656 L 987 1657 L 985 1671 L 984 1672 L 981 1687 L 978 1694 L 978 1697 L 970 1719 L 970 1722 L 966 1734 L 963 1739 L 961 1746 L 958 1751 L 958 1753 L 955 1758 L 952 1767 L 936 1799 L 934 1801 L 931 1808 L 925 1817 L 908 1851 L 907 1859 L 906 1860 L 906 1876 L 907 1879 L 905 1881 L 903 1880 L 891 1879 L 890 1878 L 878 1877 L 877 1876 L 872 1876 L 866 1874 L 861 1874 L 860 1873 L 851 1872 L 846 1870 L 842 1870 L 841 1869 L 832 1868 L 827 1866 L 823 1866 L 822 1865 L 819 1865 L 818 1864 L 795 1859 L 784 1855 L 777 1854 L 760 1848 L 757 1848 L 736 1841 L 733 1839 L 725 1837 L 722 1835 L 714 1833 L 698 1826 L 696 1826 L 691 1823 L 689 1823 L 672 1815 L 670 1815 L 663 1811 L 661 1811 L 652 1806 L 650 1806 L 637 1799 L 635 1799 L 629 1796 L 627 1794 L 608 1785 L 606 1783 L 586 1773 L 584 1771 L 579 1769 L 577 1767 L 572 1765 L 567 1761 L 554 1754 L 522 1733 L 481 1703 L 442 1671 L 424 1654 L 423 1654 L 403 1634 L 402 1634 L 400 1631 L 399 1631 L 371 1602 L 359 1587 L 343 1570 L 325 1546 L 317 1537 L 315 1533 L 296 1508 L 295 1505 L 271 1469 L 259 1447 L 257 1445 L 254 1438 L 252 1436 L 249 1429 L 247 1427 L 240 1412 L 238 1410 L 233 1400 L 233 1398 L 221 1374 L 221 1372 L 214 1358 L 214 1356 L 209 1346 L 207 1339 L 204 1334 L 204 1332 L 200 1324 L 196 1310 L 194 1307 L 191 1296 L 189 1293 L 183 1275 L 183 1272 L 175 1248 L 175 1245 L 173 1241 L 173 1238 L 170 1230 L 170 1227 L 168 1222 L 168 1218 L 166 1213 L 164 1199 L 162 1194 L 162 1190 L 161 1189 L 161 1185 L 160 1184 L 160 1180 L 159 1179 L 159 1175 L 158 1174 L 158 1170 L 156 1164 L 156 1159 L 155 1158 L 155 1153 L 154 1152 L 154 1146 L 153 1145 L 153 1140 L 152 1139 L 152 1133 L 151 1132 L 151 1126 L 150 1125 L 150 1117 L 149 1116 L 149 1109 L 148 1108 L 148 1098 L 147 1097 L 147 1088 L 146 1087 L 146 1078 L 145 1077 L 145 1065 L 144 1064 L 144 1046 L 143 1045 L 143 990 L 144 989 L 144 964 L 145 963 L 145 949 L 146 948 L 147 927 L 148 926 L 148 919 L 149 918 L 149 910 L 150 909 L 150 903 L 151 902 L 153 880 L 154 879 L 154 874 L 156 868 L 156 862 L 158 857 L 158 853 L 159 852 L 159 848 L 160 847 L 160 843 L 162 837 L 162 832 L 163 831 L 163 827 L 164 826 L 164 822 L 165 821 L 165 817 L 166 816 L 169 801 L 171 797 L 172 790 L 177 776 L 177 773 L 179 769 L 181 759 L 184 752 L 184 749 L 190 731 L 192 728 L 196 714 L 198 711 L 200 703 L 207 688 L 207 686 L 209 683 L 209 681 L 211 678 L 215 666 L 228 640 L 231 631 L 253 589 L 255 587 L 262 573 L 264 571 L 266 566 L 273 556 L 280 543 L 307 503 L 331 471 L 360 436 L 380 415 L 380 414 L 423 371 L 424 371 L 443 353 L 482 321 L 514 297 L 556 269 L 559 268 L 579 255 L 591 249 L 593 247 L 627 230 L 629 228 L 639 223 L 641 223 L 654 216 L 656 216 L 665 211 L 667 211 L 674 207 L 676 207 L 681 204 L 688 202 L 693 199 L 698 198 L 701 196 L 706 195 L 719 189 L 727 187 L 730 185 L 745 180 L 748 180 L 780 169 L 783 169 L 791 166 L 794 166 L 795 165 L 798 165 L 799 164 L 802 164 L 811 161 L 815 161 L 816 160 L 819 160 L 820 159 L 823 159 L 824 158 L 827 158 L 836 155 L 840 155 L 841 154 L 849 153 L 850 152 L 855 152 L 856 151 L 861 151 L 867 149 L 878 148 L 884 146 L 889 146 L 890 145 L 896 145 L 897 144 L 917 142 L 918 141 L 926 141 L 927 140 L 935 140 L 936 139 L 947 139 L 948 138 L 961 138 L 962 137 L 975 137 L 976 136 L 1003 136 Z
    M 1785 676 L 1783 675 L 1775 675 L 1769 678 L 1748 693 L 1726 702 L 1723 702 L 1712 706 L 1696 708 L 1690 710 L 1684 710 L 1683 711 L 1662 712 L 1661 713 L 1605 713 L 1604 712 L 1587 712 L 1586 711 L 1563 710 L 1562 709 L 1552 709 L 1551 708 L 1535 708 L 1534 707 L 1498 707 L 1497 708 L 1483 708 L 1482 709 L 1473 709 L 1472 710 L 1456 711 L 1451 713 L 1449 712 L 1448 713 L 1435 714 L 1434 715 L 1424 716 L 1423 717 L 1419 717 L 1418 718 L 1414 718 L 1408 720 L 1403 720 L 1402 721 L 1394 722 L 1393 723 L 1388 723 L 1379 726 L 1370 727 L 1369 728 L 1350 732 L 1332 738 L 1322 743 L 1315 745 L 1308 749 L 1306 749 L 1304 751 L 1295 755 L 1285 762 L 1282 763 L 1279 766 L 1260 779 L 1247 791 L 1246 791 L 1210 828 L 1210 829 L 1190 851 L 1174 874 L 1171 877 L 1166 886 L 1162 891 L 1144 927 L 1143 932 L 1141 935 L 1140 940 L 1136 949 L 1136 952 L 1134 956 L 1134 959 L 1132 964 L 1132 968 L 1130 973 L 1130 978 L 1129 979 L 1129 984 L 1128 985 L 1128 990 L 1127 991 L 1127 997 L 1126 998 L 1126 1003 L 1125 1004 L 1125 1010 L 1123 1016 L 1123 1021 L 1122 1022 L 1122 1027 L 1120 1033 L 1118 1050 L 1117 1051 L 1117 1055 L 1115 1061 L 1115 1066 L 1114 1067 L 1113 1078 L 1112 1079 L 1111 1089 L 1109 1095 L 1109 1100 L 1107 1105 L 1106 1114 L 1104 1119 L 1104 1123 L 1103 1124 L 1103 1128 L 1102 1129 L 1102 1133 L 1100 1139 L 1100 1145 L 1099 1146 L 1099 1152 L 1098 1153 L 1098 1160 L 1097 1161 L 1097 1168 L 1096 1169 L 1096 1177 L 1095 1178 L 1095 1186 L 1094 1187 L 1094 1195 L 1093 1196 L 1093 1206 L 1092 1207 L 1092 1215 L 1091 1216 L 1091 1226 L 1090 1227 L 1090 1235 L 1089 1236 L 1089 1244 L 1088 1245 L 1088 1258 L 1087 1259 L 1086 1296 L 1085 1297 L 1085 1343 L 1086 1344 L 1086 1361 L 1087 1362 L 1088 1381 L 1089 1382 L 1089 1388 L 1090 1389 L 1090 1394 L 1091 1395 L 1091 1400 L 1092 1401 L 1092 1406 L 1093 1407 L 1094 1416 L 1095 1417 L 1097 1428 L 1103 1446 L 1105 1449 L 1109 1461 L 1115 1472 L 1115 1474 L 1126 1493 L 1143 1516 L 1166 1540 L 1183 1553 L 1199 1563 L 1201 1563 L 1203 1565 L 1215 1571 L 1233 1577 L 1243 1579 L 1247 1581 L 1254 1582 L 1255 1583 L 1259 1583 L 1265 1585 L 1270 1585 L 1271 1586 L 1276 1586 L 1277 1587 L 1282 1587 L 1283 1588 L 1303 1589 L 1304 1590 L 1355 1590 L 1356 1589 L 1369 1589 L 1370 1588 L 1380 1588 L 1381 1587 L 1390 1587 L 1391 1586 L 1407 1585 L 1408 1584 L 1421 1583 L 1422 1582 L 1427 1582 L 1428 1581 L 1433 1581 L 1434 1580 L 1439 1580 L 1440 1579 L 1453 1578 L 1454 1577 L 1459 1577 L 1460 1576 L 1465 1576 L 1466 1575 L 1473 1575 L 1474 1574 L 1479 1574 L 1480 1573 L 1485 1573 L 1486 1572 L 1491 1572 L 1492 1571 L 1497 1571 L 1498 1570 L 1504 1570 L 1510 1568 L 1527 1566 L 1528 1565 L 1544 1563 L 1545 1562 L 1549 1562 L 1554 1560 L 1559 1560 L 1560 1559 L 1571 1557 L 1579 1553 L 1582 1550 L 1582 1545 L 1562 1522 L 1534 1485 L 1524 1475 L 1509 1455 L 1505 1451 L 1482 1416 L 1479 1413 L 1476 1407 L 1460 1386 L 1453 1379 L 1447 1371 L 1411 1337 L 1373 1309 L 1365 1305 L 1360 1301 L 1340 1291 L 1325 1286 L 1314 1284 L 1313 1283 L 1306 1283 L 1305 1282 L 1295 1281 L 1294 1280 L 1281 1280 L 1280 1279 L 1269 1279 L 1268 1278 L 1264 1278 L 1260 1276 L 1255 1271 L 1255 1269 L 1261 1262 L 1267 1260 L 1280 1258 L 1281 1257 L 1285 1257 L 1286 1256 L 1303 1254 L 1304 1253 L 1310 1253 L 1311 1252 L 1317 1252 L 1318 1251 L 1324 1251 L 1325 1250 L 1331 1250 L 1332 1249 L 1337 1249 L 1338 1248 L 1350 1247 L 1356 1245 L 1367 1244 L 1368 1243 L 1377 1242 L 1382 1240 L 1391 1239 L 1403 1235 L 1406 1235 L 1421 1230 L 1434 1224 L 1439 1223 L 1460 1213 L 1490 1194 L 1509 1179 L 1533 1155 L 1544 1142 L 1560 1120 L 1561 1117 L 1569 1106 L 1571 1101 L 1577 1092 L 1585 1075 L 1587 1073 L 1590 1067 L 1590 1065 L 1595 1056 L 1594 1054 L 1596 1053 L 1598 1050 L 1598 1048 L 1602 1041 L 1602 1039 L 1604 1036 L 1604 1034 L 1606 1031 L 1610 1019 L 1620 998 L 1620 996 L 1623 990 L 1622 989 L 1624 987 L 1626 981 L 1629 976 L 1629 974 L 1633 967 L 1638 952 L 1642 944 L 1641 941 L 1644 940 L 1645 936 L 1648 931 L 1648 929 L 1653 920 L 1653 918 L 1659 907 L 1661 901 L 1663 899 L 1676 872 L 1678 870 L 1683 859 L 1685 857 L 1689 848 L 1699 832 L 1702 825 L 1715 805 L 1725 787 L 1745 757 L 1755 739 L 1783 697 L 1788 686 L 1788 680 Z
    M 1112 716 L 1113 715 L 1114 717 L 1113 718 Z" fill="#ffffff" fill-rule="evenodd"/>
</svg>
